#!OML:ASF E:\Style6\Style6.ASF
:FULLY-SPECIFIED
:DEGREES
1848
root 2.36673 17.3232 -0.121411 10.4114 -15.2306 15.6754
lowerback 12.0593 -2.56544 12.8606
upperback 3.47297 -1.40349 15.1537
thorax -2.95693 -0.817774 9.54935
lowerneck -13.0264 1.69735 5.7524
upperneck 16.6868 5.08402 -21.5286
head 8.07725 0.840687 -7.79243
rclavicle 4.13472e-014 1.49486e-013
rhumerus 22.4944 -47.6855 -23.6248
rradius 54.2844
rwrist 24.3964
rhand 14.7678 0.962097
rfingers 7.12502
rthumb 39.633 -24.3736
lclavicle 4.13472e-014 1.49486e-013
lhumerus -103.32 -62.8525 160.776
lradius 77.7759
lwrist 23.9759
lhand -10.0566 9.232
lfingers 7.12502
lthumb 15.9291 38.5969
rfemur -41.0052 6.1068 -9.79531
rtibia 43.4741
rfoot -12.2891 -1.02165
rtoes -29.9227
lfemur -27.7284 9.95116 -44.3863
ltibia 29.8027
lfoot -11.178 0.284647
ltoes -3.32704
1849
root 2.36406 17.315 -0.123552 10.4209 -15.2392 15.7229
lowerback 12.112 -2.54081 12.7144
upperback 3.48959 -1.38015 15.1235
thorax -2.96828 -0.805567 9.59329
lowerneck -13.1135 1.72034 5.77922
upperneck 16.7725 5.13652 -21.582
head 8.13319 0.85402 -7.81783
rclavicle -4.13472e-014 -1.27222e-014
rhumerus 22.2738 -47.6082 -23.3787
rradius 54.2565
rwrist 24.2819
rhand 14.6145 1.04317
rfingers 7.12502
rthumb 39.4886 -24.3351
lclavicle -4.13472e-014 -1.27222e-014
lhumerus -103.341 -62.929 160.783
lradius 77.6776
lwrist 23.9715
lhand -9.97893 9.08049
lfingers 7.12502
lthumb 16.0039 38.4394
rfemur -41.1337 5.96954 -9.802
rtibia 43.6168
rfoot -12.2898 -0.949722
rtoes -30.3258
lfemur -27.8455 10.0211 -44.4503
ltibia 29.9528
lfoot -11.2167 0.231478
ltoes -3.64819
1850
root 2.36258 17.3086 -0.124798 10.4105 -15.2239 15.7252
lowerback 12.1475 -2.51495 12.6496
upperback 3.53798 -1.35662 15.0819
thorax -2.93665 -0.792592 9.57547
lowerneck -13.189 1.73307 5.84107
upperneck 16.7764 5.15495 -21.6448
head 8.15557 0.857492 -7.85224
rclavicle -5.40694e-014 -1.04958e-013
rhumerus 21.9445 -47.5881 -23.0857
rradius 54.2537
rwrist 24.2111
rhand 14.4249 1.30961
rfingers 7.12502
rthumb 39.31 -24.1209
lclavicle -5.40694e-014 -1.04958e-013
lhumerus -103.574 -63.0492 160.936
lradius 77.7552
lwrist 23.922
lhand -10.0232 9.25462
lfingers 7.12502
lthumb 15.9613 38.617
rfemur -41.1961 5.86636 -9.76787
rtibia 43.7462
rfoot -12.3279 -0.897945
rtoes -30.6013
lfemur -27.9608 10.0786 -44.4632
ltibia 30.1625
lfoot -11.3104 0.185151
ltoes -3.63826
1851
root 2.36246 17.2998 -0.124123 10.4198 -15.1927 15.65
lowerback 12.1542 -2.52432 12.6742
upperback 3.56694 -1.37061 15.0709
thorax -2.9081 -0.79892 9.54979
lowerneck -13.1256 1.76303 5.89803
upperneck 16.7409 5.20077 -21.7554
head 8.14448 0.879307 -7.89664
rclavicle 1.90833e-014 1.90833e-014
rhumerus 21.6751 -47.4657 -22.8073
rradius 54.2218
rwrist 24.1461
rhand 14.2848 1.46244
rfingers 7.12502
rthumb 39.178 -24.0064
lclavicle 1.90833e-014 1.90833e-014
lhumerus -103.67 -63.0622 161.052
lradius 77.7937
lwrist 23.9015
lhand -10.0496 9.37609
lfingers 7.12502
lthumb 15.9359 38.7405
rfemur -41.2198 5.6818 -9.60592
rtibia 43.8721
rfoot -12.3459 -0.960327
rtoes -32.5328
lfemur -28.0777 10.102 -44.385
ltibia 30.3995
lfoot -11.4184 0.0930078
ltoes -2.76758
1852
root 2.36118 17.2903 -0.123198 10.4533 -15.2095 15.5314
lowerback 12.1583 -2.51952 12.7168
upperback 3.62215 -1.37091 15.0604
thorax -2.85037 -0.798382 9.51107
lowerneck -13.0125 1.82394 5.91155
upperneck 16.5805 5.2628 -21.7727
head 8.08129 0.923463 -7.88815
rclavicle 6.36111e-015 -5.725e-014
rhumerus 21.4891 -47.3759 -22.6255
rradius 54.1621
rwrist 24.1416
rhand 14.1725 1.58653
rfingers 7.12502
rthumb 39.0722 -23.9128
lclavicle 6.36111e-015 -5.725e-014
lhumerus -103.585 -63.1084 160.952
lradius 77.8609
lwrist 23.9045
lhand -9.82939 9.28757
lfingers 7.12502
lthumb 16.1479 38.6349
rfemur -41.2894 5.55471 -9.40458
rtibia 43.9922
rfoot -12.3697 -1.11713
rtoes -34.8196
lfemur -28.2202 10.1484 -44.2724
ltibia 30.6327
lfoot -11.509 0.0661327
ltoes -2.06823
1853
root 2.36094 17.2862 -0.122794 10.4543 -15.1968 15.4697
lowerback 12.1642 -2.526 12.7265
upperback 3.69358 -1.39285 15.0268
thorax -2.7744 -0.807534 9.46579
lowerneck -12.7432 1.86993 5.71136
upperneck 16.1861 5.26483 -21.5507
head 7.88917 0.966093 -7.74222
rclavicle -6.36111e-015 -1.24042e-013
rhumerus 21.366 -47.3449 -22.5519
rradius 54.0671
rwrist 24.2512
rhand 14.0444 1.69623
rfingers 7.12502
rthumb 38.9514 -23.8377
lclavicle -6.36111e-015 -1.24042e-013
lhumerus -103.5 -63.1992 160.744
lradius 78.007
lwrist 23.916
lhand -9.65665 9.24226
lfingers 7.12502
lthumb 16.3143 38.576
rfemur -41.3641 5.43698 -9.30426
rtibia 44.1238
rfoot -12.4435 -0.77944
rtoes -32.9176
lfemur -28.3209 10.2086 -44.2204
ltibia 30.8489
lfoot -11.6349 0.0313496
ltoes -1.68677
1854
root 2.35985 17.2843 -0.121383 10.4362 -15.1365 15.4206
lowerback 12.1398 -2.53643 12.6907
upperback 3.74846 -1.42777 15.0193
thorax -2.69746 -0.823133 9.47809
lowerneck -12.5339 1.89835 5.53022
upperneck 15.8933 5.2671 -21.4016
head 7.74574 0.995352 -7.63514
rclavicle 6.67916e-014 5.08889e-014
rhumerus 21.1616 -47.229 -22.3771
rradius 54.0131
rwrist 24.3383
rhand 13.9121 1.43696
rfingers 7.12502
rthumb 38.8267 -24.1325
lclavicle 6.67916e-014 5.08889e-014
lhumerus -103.405 -63.2521 160.594
lradius 78.0462
lwrist 23.8698
lhand -9.58712 9.18973
lfingers 7.12502
lthumb 16.3812 38.518
rfemur -41.3804 5.33903 -9.22037
rtibia 44.252
rfoot -12.4462 -0.517937
rtoes -31.3012
lfemur -28.3808 10.2402 -44.1662
ltibia 31.0526
lfoot -11.7423 0.0193444
ltoes -1.98528
1855
root 2.35757 17.2795 -0.119135 10.4036 -15.1018 15.3692
lowerback 12.1428 -2.54037 12.6528
upperback 3.80166 -1.44824 14.9971
thorax -2.63906 -0.831821 9.4735
lowerneck -12.4586 1.92556 5.53128
upperneck 15.7532 5.29355 -21.4638
head 7.69281 1.0148 -7.64756
rclavicle 1.59028e-014 8.90555e-014
rhumerus 20.7775 -47.0037 -22.0928
rradius 54.0416
rwrist 24.3133
rhand 13.7306 1.24785
rfingers 7.12502
rthumb 38.6555 -24.37
lclavicle 1.59028e-014 8.90555e-014
lhumerus -103.341 -63.311 160.574
lradius 77.9381
lwrist 23.8547
lhand -9.61121 9.11662
lfingers 7.12502
lthumb 16.358 38.4468
rfemur -41.3775 5.2245 -9.10928
rtibia 44.3898
rfoot -12.4294 -0.340643
rtoes -30.6031
lfemur -28.4307 10.3301 -44.1235
ltibia 31.2456
lfoot -11.833 0.0425439
ltoes -2.74528
1856
root 2.35467 17.2739 -0.117455 10.4578 -15.0517 15.2351
lowerback 12.0764 -2.52682 12.705
upperback 3.83993 -1.4483 14.979
thorax -2.56138 -0.830317 9.41656
lowerneck -12.3688 1.96343 5.58076
upperneck 15.5602 5.31617 -21.5212
head 7.62023 1.03976 -7.66477
rclavicle -4.45278e-014 -9.22361e-014
rhumerus 20.2864 -46.7761 -21.7561
rradius 54.0517
rwrist 24.2363
rhand 13.6417 1.17717
rfingers 7.12502
rthumb 38.5716 -24.4642
lclavicle -4.45278e-014 -9.22361e-014
lhumerus -103.45 -63.3955 160.747
lradius 77.7954
lwrist 23.8148
lhand -9.74282 9.03924
lfingers 7.12502
lthumb 16.2313 38.3798
rfemur -41.4469 5.08917 -8.899
rtibia 44.5161
rfoot -12.4563 -0.34441
rtoes -31.2434
lfemur -28.5589 10.3018 -43.98
ltibia 31.4566
lfoot -11.8591 0.131364
ltoes -3.43298
1857
root 2.35024 17.2655 -0.116555 10.5549 -14.9999 15.1676
lowerback 11.968 -2.50648 12.6603
upperback 3.84582 -1.45398 14.9279
thorax -2.49546 -0.831297 9.37355
lowerneck -12.2402 2.07436 5.78156
upperneck 15.3322 5.41617 -21.6208
head 7.54579 1.11252 -7.71531
rclavicle 5.40694e-014 -2.22639e-014
rhumerus 19.7399 -46.4946 -21.4496
rradius 54.0966
rwrist 24.1689
rhand 13.5736 1.08507
rfingers 7.12502
rthumb 38.5074 -24.5743
lclavicle 5.40694e-014 -2.22639e-014
lhumerus -103.731 -63.4475 160.987
lradius 77.7976
lwrist 23.8098
lhand -9.83743 9.07217
lfingers 7.12502
lthumb 16.1402 38.4201
rfemur -41.5758 4.92157 -8.75941
rtibia 44.6421
rfoot -12.5033 -0.477895
rtoes -32.5702
lfemur -28.7507 10.26 -43.9158
ltibia 31.665
lfoot -11.9275 0.17044
ltoes -4.11214
1858
root 2.34353 17.2583 -0.116165 10.6096 -14.9107 15.1083
lowerback 11.9324 -2.51295 12.5416
upperback 3.83876 -1.48242 14.8978
thorax -2.48063 -0.844514 9.40591
lowerneck -12.1704 2.25882 5.94889
upperneck 15.196 5.64433 -21.7141
head 7.53237 1.23749 -7.74913
rclavicle -5.40694e-014 -3.18055e-015
rhumerus 19.2356 -46.1013 -21.1893
rradius 54.0861
rwrist 24.0702
rhand 13.4464 1.16592
rfingers 7.12502
rthumb 38.3873 -24.5269
lclavicle -5.40694e-014 -3.18055e-015
lhumerus -103.978 -63.4402 161.168
lradius 77.8509
lwrist 23.8694
lhand -9.88843 9.04381
lfingers 7.12502
lthumb 16.0911 38.3957
rfemur -41.6281 4.80469 -8.62556
rtibia 44.7604
rfoot -12.5537 -0.643378
rtoes -33.6682
lfemur -28.8668 10.2482 -43.8449
ltibia 31.8227
lfoot -12.0314 0.118758
ltoes -4.0719
1859
root 2.33608 17.2554 -0.113098 10.5676 -14.8065 15.0859
lowerback 11.8941 -2.54357 12.4437
upperback 3.88364 -1.55178 14.8471
thorax -2.40515 -0.876467 9.40608
lowerneck -12.1318 2.40751 6.04206
upperneck 15.0215 5.83004 -21.8168
head 7.50549 1.33674 -7.77567
rclavicle -1.90833e-014 4.13472e-014
rhumerus 18.6301 -45.589 -20.7798
rradius 54.0606
rwrist 23.8371
rhand 13.278 1.32102
rfingers 7.12502
rthumb 38.2283 -24.4157
lclavicle -1.90833e-014 4.13472e-014
lhumerus -104.335 -63.5458 161.454
lradius 77.9915
lwrist 24.1044
lhand -9.99848 9.00215
lfingers 7.12502
lthumb 15.9851 38.3626
rfemur -41.5582 4.74574 -8.53945
rtibia 44.8603
rfoot -12.6148 -0.668145
rtoes -33.7782
lfemur -28.8409 10.2908 -43.7928
ltibia 31.9204
lfoot -12.1029 0.0127661
ltoes -3.73655
1860
root 2.32848 17.2586 -0.108072 10.4861 -14.7148 15.0747
lowerback 11.8234 -2.56772 12.3515
upperback 3.94135 -1.62254 14.7777
thorax -2.29824 -0.908435 9.37822
lowerneck -11.7944 2.47067 6.08711
upperneck 14.2569 5.83322 -22.1333
head 7.21335 1.37723 -7.86156
rclavicle 2.54444e-014 -5.40694e-014
rhumerus 17.9655 -45.0372 -20.3758
rradius 54.0312
rwrist 23.589
rhand 13.1458 1.56024
rfingers 7.12502
rthumb 38.1035 -24.2107
lclavicle 2.54444e-014 -5.40694e-014
lhumerus -104.964 -63.7108 161.929
lradius 78.3172
lwrist 24.4135
lhand -10.0736 9.08787
lfingers 7.12502
lthumb 15.9128 38.4541
rfemur -41.4399 4.78282 -8.5019
rtibia 44.9243
rfoot -12.6921 -0.446708
rtoes -31.32
lfemur -28.7388 10.3772 -43.7525
ltibia 31.9597
lfoot -12.159 -0.0768333
ltoes -4.11114
1861
root 2.31822 17.2664 -0.103664 10.4601 -14.5501 14.9186
lowerback 11.7427 -2.60287 12.3635
upperback 3.95287 -1.68739 14.7336
thorax -2.23822 -0.938298 9.32288
lowerneck -11.6345 2.56107 6.11878
upperneck 13.9636 5.90939 -22.1436
head 7.10391 1.44111 -7.84865
rclavicle -9.54166e-015 7.63333e-014
rhumerus 17.2156 -44.4184 -20.0237
rradius 54.0416
rwrist 23.4371
rhand 13.1357 1.95249
rfingers 7.12502
rthumb 38.0941 -23.8211
lclavicle -9.54166e-015 7.63333e-014
lhumerus -105.657 -63.838 162.5
lradius 78.5054
lwrist 24.7378
lhand -10.0374 9.06495
lfingers 7.12502
lthumb 15.9476 38.4284
rfemur -41.2662 4.89387 -8.31173
rtibia 44.9372
rfoot -12.8094 -0.331475
rtoes -28.9422
lfemur -28.6313 10.4344 -43.5496
ltibia 31.9727
lfoot -12.1628 -0.161315
ltoes -4.36865
1862
root 2.30639 17.2741 -0.0972076 10.3821 -14.3621 14.7364
lowerback 11.7046 -2.65661 12.399
upperback 3.97223 -1.76554 14.6929
thorax -2.19269 -0.974788 9.26319
lowerneck -11.5441 2.70686 6.11673
upperneck 13.7765 6.07757 -22.0716
head 7.05197 1.54425 -7.79546
rclavicle 3.18055e-014 8.26944e-014
rhumerus 16.3331 -43.616 -19.5375
rradius 54.0797
rwrist 23.1234
rhand 13.097 2.19561
rfingers 7.12502
rthumb 38.0575 -23.588
lclavicle 3.18055e-014 8.26944e-014
lhumerus -106.074 -63.9518 162.909
lradius 78.5311
lwrist 24.9527
lhand -10.0069 9.00123
lfingers 7.12502
lthumb 15.977 38.3623
rfemur -40.9768 5.02935 -8.05906
rtibia 44.8944
rfoot -12.9003 -0.451717
rtoes -28.6923
lfemur -28.4504 10.5326 -43.3059
ltibia 31.9825
lfoot -12.1786 -0.221612
ltoes -4.9208
